<svg width="244" height="174" viewBox="0 0 244 174" fill="none" xmlns="http://www.w3.org/2000/svg">
<path fill-rule="evenodd" clip-rule="evenodd" d="M174.118 139.568C153.363 139.568 134.319 129.953 121.586 115.364C132.398 102.976 139.373 87.1178 139.373 69.296C139.373 88.7011 154.929 104.432 174.118 104.432C193.308 104.432 209.5 88.7011 209.5 69.296V130.167C199.279 136.146 186.776 139.568 174.118 139.568Z" fill="#E5E5E5"/>
<path d="M174.286 0C206.202 0 233.109 21.3794 241.38 50.5549C243.087 56.5748 244 62.9267 244 69.4912V156.299C244 165.925 236.197 173.728 226.571 173.728C216.946 173.728 209.143 165.925 209.143 156.299V129.686V69.4912C209.143 50.3017 193.537 34.7456 174.286 34.7456C155.035 34.7456 139.429 50.3017 139.429 69.4912C139.429 87.115 132.847 103.206 122 115.457C109.226 129.883 90.5361 138.982 69.7143 138.982C57.0163 138.982 45.1112 135.598 34.8572 129.686C14.0195 117.67 2.65939e-05 95.2128 2.65939e-05 69.4912C2.65939e-05 66.6052 2.82048e-05 63.8782 2.9038e-05 61.2079C3.20414e-05 51.5823 7.80307 43.7795 17.4286 43.7795C27.0541 43.7795 34.8572 51.5825 34.8572 61.208V69.4912C34.8572 88.6807 50.4632 104.237 69.7143 104.237C88.9654 104.237 104.571 88.6807 104.571 69.4912C104.571 51.8674 111.153 35.776 122 23.5258C134.774 9.09909 153.464 0 174.286 0Z" fill="white"/>
<path d="M0 17.08C0 24.0037 4.23739 29.9652 10.3284 32.6469C12.5359 33.6189 14.987 34.16 17.568 34.16C27.2705 34.16 35.136 26.513 35.136 17.08C35.136 14.5707 34.5794 12.1877 33.5797 10.0415C30.8213 4.11968 24.6895 0 17.568 0C7.86546 0 0 7.64698 0 17.08Z" fill="white"/>
</svg>
