<svg width="24" height="24" viewBox="0 0 24 24" fill="none" xmlns="http://www.w3.org/2000/svg">
<path d="M22.3268 20.6177C22.3267 20.348 22.2628 20.0826 22.1405 19.849L22.1383 19.8454L13.2146 2.62676L13.2135 2.62435C13.092 2.38786 12.9156 2.19075 12.7026 2.05384C12.4895 1.91692 12.2467 1.84486 12 1.84486C11.7535 1.84489 11.5115 1.91706 11.2985 2.05384C11.0854 2.19074 10.9092 2.38781 10.7876 2.62435L10.7854 2.62676L1.86166 19.8454L1.86057 19.849C1.73768 20.0837 1.67269 20.3503 1.67321 20.6213C1.67375 20.8922 1.73904 21.1584 1.86275 21.3924C1.98653 21.6264 2.16449 21.8206 2.378 21.9545C2.59172 22.0884 2.8348 22.1575 3.08062 22.1551H20.9346L21.1166 22.1419C21.2972 22.1154 21.4719 22.0498 21.6307 21.9485C21.8424 21.8135 22.0183 21.6199 22.1405 21.3864C22.2627 21.1528 22.3268 20.8874 22.3268 20.6177ZM24 20.6177C24 21.2109 23.8591 21.7937 23.5904 22.3076C23.3216 22.8217 22.9343 23.2488 22.4684 23.5459C22.0026 23.8429 21.4738 23.9993 20.9357 23.9999H3.08715C2.5491 24.0037 2.01906 23.8511 1.55121 23.5579C1.08131 23.2633 0.690695 22.8369 0.418308 22.322C0.145888 21.8071 0.00129139 21.2222 7.54266e-06 20.6261C-0.00119009 20.0298 0.140252 19.443 0.410683 18.9266L9.33334 1.71154C9.60075 1.1926 9.98765 0.7606 10.4553 0.460013C10.9241 0.15883 11.4574 3.98198e-05 12 0C12.5426 0 13.0758 0.158792 13.5447 0.460013C14.0124 0.760571 14.3992 1.19257 14.6667 1.71154L23.5893 18.9266C23.8584 19.4405 23.9999 20.0243 24 20.6177Z" fill="#DB0101"/>
<path d="M11.1748 13.2386V8.31894C11.1748 7.8095 11.5493 7.39651 12.0114 7.39651C12.4734 7.39651 12.848 7.8095 12.848 8.31894V13.2386C12.848 13.748 12.4734 14.161 12.0114 14.161C11.5493 14.161 11.1748 13.748 11.1748 13.2386Z" fill="#DB0101"/>
<path d="M12.0223 17.2357C12.4843 17.2357 12.8589 17.6487 12.8589 18.1582C12.8589 18.6676 12.4843 19.0806 12.0223 19.0806H12.0114C11.5493 19.0806 11.1748 18.6676 11.1748 18.1582C11.1748 17.6487 11.5493 17.2357 12.0114 17.2357H12.0223Z" fill="#DB0101"/>
</svg>
