<svg width="16" height="16" viewBox="0 0 16 16" fill="none" xmlns="http://www.w3.org/2000/svg">
<path d="M8.8414 9.16341C8.87807 8.77086 9.04042 8.39881 9.3069 8.10417L14.1227 2.77799C14.144 2.75416 14.158 2.72432 14.163 2.69271C14.168 2.66099 14.1637 2.62832 14.1506 2.59896C14.1376 2.56964 14.1163 2.54489 14.0894 2.52734C14.0759 2.5185 14.0612 2.51172 14.0458 2.50716L13.999 2.5H2.00026C1.96802 2.50001 1.93613 2.50912 1.90911 2.52669C1.88214 2.54426 1.86098 2.56954 1.84791 2.59896C1.83485 2.62835 1.83052 2.66094 1.83554 2.69271C1.84058 2.72432 1.85456 2.75415 1.87591 2.77799L6.69296 8.10417C6.99763 8.44101 7.16672 8.87914 7.16692 9.33333V13.3333C7.16691 13.3643 7.17538 13.3949 7.19166 13.4212C7.2079 13.4475 7.23112 13.4686 7.25872 13.4824L8.5914 14.1491C8.61678 14.1618 8.64574 14.1679 8.67408 14.1667C8.70244 14.1654 8.73002 14.1568 8.75416 14.1419C8.77831 14.127 8.79828 14.1062 8.8121 14.0814C8.82593 14.0566 8.8336 14.0284 8.83359 14V9.33333L8.8414 9.16341ZM9.83359 14L9.82382 14.1478C9.80508 14.2949 9.75836 14.4374 9.6858 14.5677C9.58902 14.7415 9.44935 14.8882 9.2802 14.9928C9.11117 15.0973 8.91817 15.157 8.71966 15.166C8.521 15.175 8.32333 15.1325 8.14544 15.0436L6.81145 14.377C6.61771 14.28 6.45462 14.1309 6.34075 13.9466C6.24111 13.7853 6.18254 13.6024 6.16953 13.4141L6.16692 13.3333V9.33333C6.16679 9.1528 6.10764 8.97806 6.00025 8.83464L5.95143 8.77474L1.13437 3.44857C0.983201 3.28107 0.883423 3.07307 0.847912 2.85026C0.812416 2.62747 0.842246 2.39888 0.933849 2.19271C1.02544 1.98663 1.17515 1.81176 1.36419 1.6888C1.55328 1.56585 1.77406 1.50013 1.9996 1.5H14.0009L14.0855 1.50326C14.2812 1.5179 14.4705 1.58177 14.6357 1.68945C14.8245 1.81262 14.974 1.98791 15.0654 2.19401C15.1567 2.40009 15.1862 2.62835 15.1506 2.85091C15.1151 3.07349 15.0159 3.28123 14.8648 3.44857L10.0491 8.77474C9.91058 8.92781 9.83374 9.12691 9.83359 9.33333V14Z" fill="#0A0A0A"/>
</svg>
