<svg width="11" height="11" viewBox="0 0 11 11" fill="none" xmlns="http://www.w3.org/2000/svg">
<path d="M10 5.375C10 2.82068 7.92932 0.75 5.375 0.75C2.82068 0.75 0.75 2.82068 0.75 5.375C0.75 7.92932 2.82068 10 5.375 10C7.92932 10 10 7.92932 10 5.375ZM10.75 5.375C10.75 8.34353 8.34353 10.75 5.375 10.75C2.40647 10.75 0 8.34353 0 5.375C0 2.40647 2.40647 0 5.375 0C8.34353 0 10.75 2.40647 10.75 5.375Z" fill="#171717"/>
<path d="M5 5.375V3.375C5 3.16789 5.16789 3 5.375 3C5.58211 3 5.75 3.16789 5.75 3.375V5.375C5.75 5.58211 5.58211 5.75 5.375 5.75C5.16789 5.75 5 5.58211 5 5.375Z" fill="#171717"/>
<path d="M5.37988 7C5.58699 7 5.75488 7.16789 5.75488 7.375C5.75488 7.58211 5.58699 7.75 5.37988 7.75H5.375C5.16789 7.75 5 7.58211 5 7.375C5 7.16789 5.16789 7 5.375 7H5.37988Z" fill="#171717"/>
</svg>
