<svg width="18" height="22" viewBox="0 0 18 22" fill="none" xmlns="http://www.w3.org/2000/svg">
<path d="M0 18.75V2.75C0 2.02065 0.289939 1.32139 0.805664 0.805664C1.32139 0.289939 2.02065 0 2.75 0H11.75C11.9489 0 12.1396 0.0790743 12.2803 0.219727L17.2803 5.21973C17.4209 5.36038 17.5 5.55109 17.5 5.75V18.75C17.5 19.4793 17.2101 20.1786 16.6943 20.6943C16.1786 21.2101 15.4793 21.5 14.75 21.5H2.75C2.02065 21.5 1.32139 21.2101 0.805664 20.6943C0.289939 20.1786 0 19.4793 0 18.75ZM1.5 18.75C1.5 19.0815 1.63179 19.3994 1.86621 19.6338C2.10063 19.8682 2.41848 20 2.75 20H14.75C15.0815 20 15.3994 19.8682 15.6338 19.6338C15.8682 19.3994 16 19.0815 16 18.75V6.06055L11.4395 1.5H2.75C2.41848 1.5 2.10063 1.63179 1.86621 1.86621C1.63179 2.10063 1.5 2.41848 1.5 2.75V18.75Z" fill="#525252"/>
<path d="M10 4.75V0.75C10 0.335786 10.3358 0 10.75 0C11.1642 0 11.5 0.335786 11.5 0.75V4.75C11.5 5.08152 11.6318 5.39937 11.8662 5.63379C12.1006 5.86821 12.4185 6 12.75 6H16.75C17.1642 6 17.5 6.33579 17.5 6.75C17.5 7.16421 17.1642 7.5 16.75 7.5H12.75C12.0207 7.5 11.3214 7.21006 10.8057 6.69434C10.2899 6.17861 10 5.47935 10 4.75Z" fill="#525252"/>
<path d="M6.75 7C7.16421 7 7.5 7.33579 7.5 7.75C7.5 8.16421 7.16421 8.5 6.75 8.5H4.75C4.33579 8.5 4 8.16421 4 7.75C4 7.33579 4.33579 7 4.75 7H6.75Z" fill="#525252"/>
<path d="M12.75 11C13.1642 11 13.5 11.3358 13.5 11.75C13.5 12.1642 13.1642 12.5 12.75 12.5H4.75C4.33579 12.5 4 12.1642 4 11.75C4 11.3358 4.33579 11 4.75 11H12.75Z" fill="#525252"/>
<path d="M12.75 15C13.1642 15 13.5 15.3358 13.5 15.75C13.5 16.1642 13.1642 16.5 12.75 16.5H4.75C4.33579 16.5 4 16.1642 4 15.75C4 15.3358 4.33579 15 4.75 15H12.75Z" fill="#525252"/>
</svg>
